<?xml version="1.0" encoding="UTF-8"?>
<!DOCTYPE svg PUBLIC "-//W3C//DTD SVG 1.1//EN" "http://www.w3.org/Graphics/SVG/1.1/DTD/svg11.dtd">
<!-- Creator: CorelDRAW 2019 (64-Bit) -->
<svg xmlns="http://www.w3.org/2000/svg" xml:space="preserve" width="180.847mm" height="127mm" version="1.1" style="shape-rendering:geometricPrecision; text-rendering:geometricPrecision; image-rendering:optimizeQuality; fill-rule:evenodd; clip-rule:evenodd"
viewBox="0 0 18084.7 12700"
 xmlns:xlink="http://www.w3.org/1999/xlink">
 <defs>
  <style type="text/css">
   <![CDATA[
    .str0 {stroke:#535461;stroke-width:52.92;stroke-miterlimit:22.9256}
    .fil1 {fill:none}
    .fil0 {fill:#3F8991}
    .fil16 {fill:#444053}
    .fil11 {fill:#5A5773}
    .fil2 {fill:#63CEFF}
    .fil18 {fill:#925978}
    .fil17 {fill:#A1616A}
    .fil7 {fill:#A8A8A8}
    .fil14 {fill:#EFB7B9}
    .fil15 {fill:#FF6484}
    .fil6 {fill:#FFD037}
    .fil10 {fill:white}
    .fil19 {fill:black;fill-opacity:0.011765}
    .fil5 {fill:black;fill-opacity:0.101961}
    .fil4 {fill:#63CEFF;fill-opacity:0.101961}
    .fil8 {fill:black;fill-opacity:0.200000}
    .fil12 {fill:#5A5773;fill-opacity:0.200000}
    .fil3 {fill:black;fill-opacity:0.250980}
    .fil9 {fill:url(#id0)}
    .fil13 {fill:url(#id1)}
   ]]>
  </style>
  <linearGradient id="id0" gradientUnits="userSpaceOnUse" x1="9245.26" y1="8377.73" x2="9245.26" y2="1650.28">
   <stop offset="0" style="stop-opacity:0.25098; stop-color:gray"/>
   <stop offset="0.541176" style="stop-opacity:0.121569; stop-color:gray"/>
   <stop offset="1" style="stop-opacity:0.101961; stop-color:gray"/>
  </linearGradient>
  <linearGradient id="id1" gradientUnits="userSpaceOnUse" xlink:href="#id0" x1="1155570.33" y1="-1921545.55" x2="1155570.33" y2="-7449472">
  </linearGradient>
 </defs>
 <g id="Layer_x0020_1">
  <metadata id="CorelCorpID_0Corel-Layer"/>
  <circle class="fil0" cx="12332.5" cy="6333.4" r="5279.82"/>
  <g id="_2383005768352">
   <g id="d00831fc-a64a-413c-b5dd-d7bd6eafa01d" data-name="flowers">
    <path class="fil1 str0" d="M4442.32 4760.64c0,0 -623.92,-1105.69 -1564.14,-1424.16 -394.56,-133.74 -738.94,-385.2 -974.4,-728.9 -111.31,-162.88 -207.87,-336.68 -287.47,-517.17"/>
    <path class="fil2" d="M1025.01 1885.87c107.15,103.49 606.01,212 606.01,212 0,0 -122.07,-495.34 -229.49,-599.37 -50.19,-47.53 -116.72,-74.03 -185.86,-74.03 -149.27,0 -270.31,121.05 -270.31,270.32 0,71.91 28.71,140.94 79.66,191.64l-0.01 -0.56z"/>
    <path class="fil2" d="M1307.26 2782.28c146.36,29.03 623.92,-151.77 623.92,-151.77 0,0 -372.31,-349.4 -518.8,-378.43 -15.45,-2.7 -31.16,-4.09 -46.87,-4.09 -149.27,0 -270.32,121.05 -270.32,270.32 0,126.83 88.25,236.66 212.07,263.98l0 -0.01z"/>
    <path class="fil2" d="M2334.7 3752.61c141.06,-48.83 461.15,-445.83 461.15,-445.83 0,0 -497.5,-113.8 -638.43,-64.97 -113.02,35.13 -190.11,139.78 -190.11,258.15 0,149.27 121.04,270.32 270.31,270.32 32.84,0 65.45,-6.01 96.14,-17.65l0.94 -0.02z"/>
    <path class="fil2" d="M3277.35 4311.29c147.3,-24.42 530.33,-361.46 530.33,-361.46 0,0 -471.06,-196.27 -618.36,-171.99 -130.53,21.51 -226.3,134.41 -226.3,266.73 0,149.27 121.05,270.33 270.33,270.33 14.72,0 29.51,-1.22 44.02,-3.6l-0.02 -0.01z"/>
    <path class="fil2" d="M2346.77 2243.41c0,149.19 -269.91,582.28 -269.91,582.28 0,0 -270.46,-432.82 -270.59,-582.01 -0.03,-2 -0.06,-4.04 -0.06,-6.06 0,-149.27 121.04,-270.31 270.31,-270.31 149.27,0 270.32,121.04 270.32,270.31 0,2.02 -0.04,4.06 -0.07,6.04l0 -0.25z"/>
    <path class="fil2" d="M3441.06 2911.68c-44.62,142.41 -431.86,474.71 -431.86,474.71 0,0 -128.57,-494.38 -84.5,-637.48 38.69,-107 140.4,-178.38 254.22,-178.38 149.27,0 270.32,121.05 270.32,270.31 0,23.5 -3.07,46.9 -9.11,69.6l0.93 1.24z"/>
    <path class="fil2" d="M4415.46 3705.82c-19.8,147.97 -345.32,540.91 -345.32,540.91 0,0 -210.24,-464.96 -189.89,-612.93 19.85,-132.28 133.54,-230.2 267.33,-230.2 149.27,0 270.32,121.05 270.32,270.32 0,10.65 -0.63,21.35 -1.89,31.91l-0.55 -0.01z"/>
    <path class="fil3" d="M1025.01 1885.87c107.15,103.49 606.01,212 606.01,212 0,0 -122.07,-495.34 -229.49,-599.37 -50.19,-47.53 -116.72,-74.03 -185.86,-74.03 -149.27,0 -270.31,121.05 -270.31,270.32 0,71.91 28.71,140.94 79.66,191.64l-0.01 -0.56z"/>
    <path class="fil3" d="M1307.26 2782.28c146.36,29.03 623.92,-151.77 623.92,-151.77 0,0 -372.31,-349.4 -518.8,-378.43 -15.45,-2.7 -31.16,-4.09 -46.87,-4.09 -149.27,0 -270.32,121.05 -270.32,270.32 0,126.83 88.25,236.66 212.07,263.98l0 -0.01z"/>
    <path class="fil3" d="M2334.7 3752.61c141.06,-48.83 461.15,-445.83 461.15,-445.83 0,0 -497.5,-113.8 -638.43,-64.97 -113.02,35.13 -190.11,139.78 -190.11,258.15 0,149.27 121.04,270.32 270.31,270.32 32.84,0 65.45,-6.01 96.14,-17.65l0.94 -0.02z"/>
    <path class="fil3" d="M3277.35 4311.29c147.3,-24.42 530.33,-361.46 530.33,-361.46 0,0 -471.06,-196.27 -618.36,-171.99 -130.53,21.51 -226.3,134.41 -226.3,266.73 0,149.27 121.05,270.33 270.33,270.33 14.72,0 29.51,-1.22 44.02,-3.6l-0.02 -0.01z"/>
    <path class="fil3" d="M2346.77 2243.41c0,149.19 -269.91,582.28 -269.91,582.28 0,0 -270.46,-432.82 -270.59,-582.01 -0.03,-2 -0.06,-4.04 -0.06,-6.06 0,-149.27 121.04,-270.31 270.31,-270.31 149.27,0 270.32,121.04 270.32,270.31 0,2.02 -0.04,4.06 -0.07,6.04l0 -0.25z"/>
    <path class="fil3" d="M3441.06 2911.68c-44.62,142.41 -431.86,474.71 -431.86,474.71 0,0 -128.57,-494.38 -84.5,-637.48 38.69,-107 140.4,-178.38 254.22,-178.38 149.27,0 270.32,121.05 270.32,270.31 0,23.5 -3.07,46.9 -9.11,69.6l0.93 1.24z"/>
    <path class="fil3" d="M4415.46 3705.82c-19.8,147.97 -345.32,540.91 -345.32,540.91 0,0 -210.24,-464.96 -189.89,-612.93 19.85,-132.28 133.54,-230.2 267.33,-230.2 149.27,0 270.32,121.05 270.32,270.32 0,10.65 -0.63,21.35 -1.89,31.91l-0.55 -0.01z"/>
    <path class="fil1 str0" d="M4406.37 4738.67c0,0 -122.07,-1263.84 -852.87,-1936.04 -306.39,-282.12 -519.34,-651.05 -595.43,-1061.21 -35.02,-192.09 -53.17,-388.08 -53.17,-583.68 0,-1.58 0,-3.94 0,-5.52"/>
    <path class="fil2" d="M2447.14 725.79c55.88,138.48 468.34,438.91 468.34,438.91 0,0 88.84,-502.52 33.1,-641.01 -41.21,-102.37 -140.55,-169.45 -250.92,-169.45 -149.37,0 -270.51,121.14 -270.51,270.51 0,34.61 6.67,68.95 19.59,101.05l0.4 -0.01z"/>
    <path class="fil2" d="M2341.48 1659.63c122.07,85.86 631.64,113.94 631.64,113.94 0,0 -197.62,-470.11 -319.68,-555.97 -45.61,-32.18 -100.13,-49.49 -155.98,-49.49 -149.37,0 -270.51,121.14 -270.51,270.51 0,87.88 42.73,170.34 114.53,221.01l0 0z"/>
    <path class="fil2" d="M2888.22 2962.81c149.19,12.62 602.76,-220.54 602.76,-220.54 0,0 -408.67,-305.59 -557.46,-318.06 -9.47,-0.99 -19.08,-1.52 -28.61,-1.52 -149.27,0 -270.32,121.05 -270.32,270.32 0,142.8 111.12,260.97 253.62,269.79l0.01 0.01z"/>
    <path class="fil2" d="M3523.53 3855.82c144.59,37.44 631.38,-115.56 631.38,-115.56 0,0 -351.16,-370.28 -495.61,-407.72 -20.77,-5.01 -42.22,-7.58 -63.64,-7.58 -149.27,0 -270.32,121.04 -270.32,270.31 0,121.55 81.22,228.21 198.34,260.55l-0.15 0z"/>
    <path class="fil2" d="M3510.64 1588.29c-60.36,136.45 -482.72,422.77 -482.72,422.77 0,0 -71.89,-505.1 -11.53,-641.68 42.28,-99.99 140.4,-165 248.97,-165 149.27,0 270.32,121.05 270.32,270.32 0,39.2 -8.55,78.01 -25.02,113.59l-0.02 0z"/>
    <path class="fil2" d="M4240.36 2641.9c-98.48,112.17 -587.16,259.06 -587.16,259.06 0,0 82.46,-503.48 181.07,-615.65 51.27,-58.4 125.33,-91.92 203.05,-91.92 149.21,0 270.22,121.01 270.22,270.22 0,65.58 -23.92,129.05 -67.17,178.3l-0.01 -0.01z"/>
    <path class="fil2" d="M4810.02 3763.46c-78.13,127.22 -534.94,354.55 -534.94,354.55 0,0 -3.8,-510.26 74.32,-637.49 49.18,-80.13 136.53,-129.04 230.59,-129.04 149.38,0 270.52,121.14 270.52,270.52 0,49.93 -13.84,98.91 -39.93,141.45l-0.56 0.01z"/>
   </g>
   <g id="_5cfdbbb0-8197-4f02-a5fd-2740d54b5dec" data-name="floor flowers">
    <path class="fil4" d="M3883.1 11694.27c0,-43.44 -205.74,-78.67 -459.53,-78.67 -253.79,0 -459.53,35.23 -459.53,78.67 0,43.45 205.74,78.67 459.53,78.67 253.79,0 459.53,-35.22 459.53,-78.67z"/>
    <path class="fil2" d="M3523.4 10818.35c0,0 74.46,97.52 -34.45,244.14 -108.92,146.62 -198.7,271.27 -162.76,363.09 0,0 164.25,-273.31 298.39,-277.1 134.14,-3.79 46.11,-165.74 -101.18,-330.13z"/>
    <path class="fil5" d="M3523.4 10818.35c6.49,9.41 11.63,19.77 15.19,30.64 130.48,153.26 200.06,296.35 74.59,299.88 -116.78,3.39 -257.03,212.27 -290.53,265.03 1.11,4.08 2.45,8.15 3.95,12.08 1.5,3.93 164.25,-273.31 298.4,-277.1 134.14,-3.79 45.69,-166.14 -101.6,-330.53z"/>
    <path class="fil6" d="M3661.88 10942.59c0,34.31 -3.8,62.12 -8.55,62.12 -4.74,0 -8.68,-27.13 -8.68,-62.12 0,-35 4.89,-18.18 9.64,-18.18 4.74,0 7.59,-16.14 7.59,18.18z"/>
    <path class="fil6" d="M3709.48 10983.55c-30.11,16.41 -56.42,26.31 -58.72,22.11 -2.31,-4.21 20.34,-20.89 50.45,-37.3 30.12,-16.41 18.18,-4.48 20.48,0 2.31,4.47 17.9,-1.22 -12.21,15.19z"/>
    <path class="fil2" d="M3129.78 10818.35c0,0 -74.46,97.52 34.45,244.14 108.91,146.62 198.7,271.27 162.76,363.09 0,0 -164.25,-273.31 -298.39,-277.1 -134.14,-3.79 -45.84,-165.74 101.18,-330.13z"/>
    <path class="fil5" d="M3129.78 10818.35c-6.47,9.41 -11.62,19.77 -15.17,30.64 -130.48,153.26 -200.06,296.35 -74.6,299.88 116.91,3.39 257.03,212.27 290.53,265.03 -1.05,4.09 -2.38,8.16 -3.94,12.08 -1.57,3.92 -164.26,-273.31 -298.4,-277.1 -134.14,-3.79 -45.44,-166.14 101.58,-330.53z"/>
    <path class="fil6" d="M2991.3 10942.59c0,34.31 3.8,62.12 8.55,62.12 4.75,0 8.68,-27.13 8.68,-62.12 0,-35 -4.89,-18.18 -9.63,-18.18 -4.75,0 -7.6,-16.14 -7.6,18.18z"/>
    <path class="fil6" d="M2943.83 10983.55c30.11,16.41 56.29,26.31 58.59,22.11 2.31,-4.21 -20.34,-20.89 -50.46,-37.3 -30.11,-16.41 -18.17,-4.48 -20.48,0 -2.3,4.47 -17.76,-1.22 12.35,15.19z"/>
    <path class="fil7" d="M3015.04 11413.24c0,0 208.33,-6.51 271.27,-51.14 62.93,-44.62 320.37,-98.2 335.96,-26.45 15.6,71.76 313.05,356.59 77.86,358.48 -235.19,1.9 -546.48,-36.62 -609.14,-74.73 -62.65,-38.12 -75.95,-206.16 -75.95,-206.16z"/>
    <path class="fil8" d="M3704.2 11669.18c-235.19,1.9 -546.48,-36.62 -609.13,-74.74 -47.75,-29.16 -66.74,-133.46 -73.11,-181.48l-6.92 0c0,0 13.57,167.92 75.82,206.17 62.26,38.25 373.95,76.63 609.13,74.74 67.82,0 91.42,-24.69 90.06,-60.49 -9.36,21.96 -35.27,35.39 -85.85,35.8z"/>
    <path class="fil2" d="M9972.26 11405.23c0,0 -573.46,-34.58 -505.78,367.3 0,0 -13.56,70.94 50.87,103.22 0,0 1.08,-29.7 58.86,-19.66 14.38,2.38 29.03,3.63 43.61,3.63 6.22,0 12.48,-0.26 18.66,-0.67 28.14,-1.84 54.95,-12.91 76.21,-31.46l0.01 0.01c0,0 161.13,-66.46 223.79,-329.99 0,0 46.39,-57.51 44.63,-72.3l-96.85 40.7c0,0 33.1,69.85 7.06,127.9 0,0 -3.12,-125.33 -21.7,-122.07 -3.8,0 -50.32,24.14 -50.32,24.14 0,0 56.97,122.07 13.56,209.97 0,0 16.28,-149.2 -31.73,-201.15l-67.82 39.74c0,0 66.46,125.59 21.43,228.13 0,0 11.53,-157.19 -35.68,-218.5l-61.71 48.15c0,0 62.39,123.83 24.28,208.88 0,0 -4.89,-182.97 -37.71,-196.81 0,0 -54.25,47.61 -62.25,67.82 0,0 42.72,89.79 16.27,137.26 0,0 -16.27,-122.07 -29.7,-122.07 0,0 -54.25,81.38 -59.41,135.63 0,0 2.44,-82.33 46.39,-143.9 -31.01,5.88 -59.66,20.77 -82.34,42.71 -22.68,21.95 8.41,-57.1 94.95,-62.12 0,0 44.48,-61.3 56.42,-64.97 0,0 -86.8,-7.32 -139.43,16.01 0,0 46.25,-54.26 155.3,-29.43l60.9 -49.65c0,0 -114.2,-15.73 -162.76,1.63 0,0 55.88,-47.74 179.17,-13.56l66.47 -39.61c0,0 -97.53,-21.02 -155.58,-13.56 0,0 61.31,-33.1 174.97,2.71l47.47 -21.3c0,0 -71.48,-13.56 -92.37,-16.14 -20.88,-2.58 -21.97,-8 -21.97,-8 13.43,-2.23 27.09,-3.37 40.73,-3.37 32.02,0 63.77,6.22 93.4,18.29 29.63,12.07 101.47,-37.16 99.7,-43.54z"/>
    <path class="fil4" d="M9983.12 11910.75c0,-37.91 -181.69,-68.63 -405.82,-68.63 -224.13,0 -405.82,30.72 -405.82,68.63 0,37.9 181.69,68.63 405.82,68.63 224.13,0 405.82,-30.73 405.82,-68.63z"/>
    <path class="fil2" d="M8967.62 11426.67c0,0 -323.35,-19.53 -284.83,207.11 -0.52,3.04 -0.78,6.13 -0.78,9.23 0,20.53 11.37,39.38 29.53,48.96 18.17,9.57 0,-16.82 33.23,-11.13 8.39,1.35 16.91,2.05 25.41,2.05 3.19,0 6.42,-0.12 9.59,-0.29 15.86,-1.15 30.95,-7.39 42.99,-17.76l0 0c0,0 90.88,-37.57 126.28,-186.09 0,0 26.04,-32.42 25.09,-40.69l-54.25 23.19c0,0 18.59,39.47 3.93,72.16 0,0 -1.76,-70.67 -12.2,-69.04 -2.17,0 -28.35,13.57 -28.35,13.57 0,0 32.01,67.81 7.87,118.4 0,0 9.09,-84.5 -17.91,-113.52l-38.38 22.51c0,0 37.43,70.8 12.07,128.58 0,0 6.51,-88.7 -20.21,-123.15l-34.72 27.13c0,0 35.13,69.85 13.56,117.73 0,0 -2.85,-103.22 -21.29,-110.95 -13.18,11.1 -25.05,23.84 -35.15,37.82 -10.09,13.99 24.15,50.73 9.23,77.45 0,0 -9.23,-68.76 -16.68,-69.04 0,0 -30.39,45.58 -33.51,76.77 1.37,-28.93 10.39,-57.03 26.06,-81.38 -17.48,3.32 -33.6,11.66 -46.39,24.02 -12.78,12.35 4.75,-32.28 54.26,-34.99 0,0 24.95,-34.59 31.73,-36.63 0,0 -48.96,-4.2 -78.67,8.95 0,0 26.18,-30.38 87.62,-16.54l34.32 -28.08c0,0 -64.43,-8.82 -91.69,0.95 0,0 31.46,-27.13 101.04,-7.33l37.3 -22.24c-23.73,-5.24 -48.16,-7.94 -72.5,-7.94 -5.04,0 -10.11,0.13 -15.1,0.33 -4.99,0.21 34.59,-18.58 98.6,1.49l27.13 -11.93c0,0 -40.69,-8 -51.95,-9.22 -11.25,-1.22 -12.47,-4.48 -12.47,-4.48 7.55,-1.23 15.26,-1.89 22.95,-1.89 18.06,0 35.98,3.51 52.72,10.31 16.73,6.8 55.47,-20.74 54.52,-24.4z"/>
    <path class="fil4" d="M8973.72 11711.77c0,-21.35 -102.44,-38.65 -228.81,-38.65 -126.37,0 -228.81,17.3 -228.81,38.65 0,21.34 102.44,38.65 228.81,38.65 126.37,0 228.81,-17.31 228.81,-38.65z"/>
    <path class="fil2" d="M9583 10946.39c0,0 -390.23,-23.61 -344.24,249.97 -0.64,3.68 -0.96,7.44 -0.96,11.19 0,24.77 13.75,47.53 35.67,59.06 21.93,11.53 0,-20.21 40.01,-13.57 10.03,1.61 20.2,2.41 30.35,2.41 3.97,0 8.04,-0.14 11.99,-0.37 19.14,-1.37 37.38,-8.9 51.94,-21.43l0 0.01c0,0 109.73,-45.31 152.32,-224.75 0,0 31.6,-39.06 30.38,-49.1l-65.92 28.08c0,0 22.51,47.61 4.89,87.07 0,0 -2.17,-85.31 -14.92,-83.27 -2.44,0 -34.19,16.41 -34.19,16.41 0,0 38.8,82.87 9.5,142.95 0,0 11.12,-101.99 -21.57,-136.99l-46.39 27.13c0,0 45.31,85.45 14.66,155.3 0,0 7.86,-107.01 -24.42,-149.19l-42.05 32.68c0,0 42.59,84.23 16.68,142.15 0,0 -3.39,-124.52 -25.77,-134.01 0,0 -36.75,32.42 -42.31,45.71 0,0 29.16,61.17 10.98,93.45 0,0 -10.98,-82.87 -20.07,-83.28 0,0 -36.63,54.25 -40.7,92.64 1.73,-34.81 12.61,-68.62 31.47,-97.92 -21.08,3.98 -40.57,14.09 -56.02,29.01 -15.44,14.91 5.7,-38.93 65.11,-42.32 0,0 30.24,-41.64 38.38,-44.22 0,0 -59.13,-4.88 -94.94,10.99 0,0 31.46,-36.76 105.8,-20.08l41.5 -33.77c0,0 -77.85,-10.71 -110.81,1.09 0,0 37.97,-32.42 122.07,-8.82l45.17 -27.13c0,0 -66.32,-13.56 -105.8,-9.09 0,0 41.64,-22.51 119.09,1.77l32.28 -14.38c0,0 -48.7,-9.63 -62.94,-11.13 -14.24,-1.49 -14.92,-5.42 -14.92,-5.42 9.11,-1.49 18.41,-2.28 27.68,-2.28 21.79,0 43.43,4.24 63.6,12.46 20.17,8.21 68.77,-24.68 67.42,-29.01z"/>
    <path class="fil4" d="M9590.59 11290.49c0,-25.77 -123.7,-46.66 -276.29,-46.66 -152.58,0 -276.28,20.89 -276.28,46.66 0,25.76 123.7,46.65 276.28,46.65 152.59,0 276.29,-20.89 276.29,-46.65z"/>
   </g>
   <g id="_1cf578eb-5ffb-4cd7-95b8-45aaaddab7e0" data-name="browser">
    <path class="fil9" d="M15701.46 8284.56l0 -6634.29 -12903.57 0 0 6253.7c164.79,137.53 362.96,253.23 569.66,348.31 101.81,46.93 205.8,89.83 311.96,128.72l11868.01 0 153.94 -96.44z"/>
    <path class="fil10" d="M15676.5 8287.27l0 -6447.11 -12850.4 0 0 6077.78c164.12,133.74 361.46,246.18 566.95,339.09 101.45,45.21 205.08,86.89 310.88,125.05l11818.9 0 153.67 -94.81z"/>
    <rect class="fil11" x="2826.23" y="1669.13" width="12850.27" height="340.98"/>
   </g>
   <g id="_6703b009-63cb-4af0-a0d7-9948e224c180" data-name="buttons">
    <circle class="fil10" cx="3082.85" cy="1839.62" r="88.16"/>
    <circle class="fil10" cx="3320.21" cy="1839.62" r="88.16"/>
    <circle class="fil10" cx="3557.57" cy="1839.62" r="88.16"/>
   </g>
   <g id="_8c4e1fb4-b9ff-4530-b767-610e84618ea6" data-name="boxes">
    <rect class="fil2" x="6110.08" y="2759.49" width="2122.68" height="1333.83"/>
    <polygon class="fil12" points="3171.02,4093.32 5293.7,4093.32 5293.7,2759.49 3171.02,2759.49 "/>
    <polygon class="fil12" points="9049.14,4093.32 11171.82,4093.32 11171.82,2759.49 9049.14,2759.49 "/>
    <polygon class="fil12" points="3171.02,6000.2 5293.7,6000.2 5293.7,4666.37 3171.02,4666.37 "/>
    <polygon class="fil12" points="6110.08,6000.2 8232.76,6000.2 8232.76,4666.37 6110.08,4666.37 "/>
    <polygon class="fil12" points="9049.14,6000.2 11171.82,6000.2 11171.82,4666.37 9049.14,4666.37 "/>
    <polygon class="fil12" points="3171.02,7906.95 5293.7,7906.95 5293.7,6573.12 3171.02,6573.12 "/>
    <polygon class="fil12" points="6110.08,7906.95 8232.76,7906.95 8232.76,6573.12 6110.08,6573.12 "/>
    <polygon class="fil12" points="9049.14,7906.95 11171.82,7906.95 11171.82,6573.12 9049.14,6573.12 "/>
   </g>
   <g id="_2796dd85-6618-42ad-b8a0-d6b4cc80ab2d" data-name="woman">
    <path class="fil13" d="M7853.25 6101.8c0,0 -381.27,-696.89 -316.98,-810.28 64.29,-113.39 111.63,-277.51 111.63,-277.51 0,0 140.79,-96.3 140.79,-135.64 0,-39.33 111.49,-130.34 170.22,-169.94 58.73,-39.61 29.3,-226.65 0,-249.3 -29.3,-22.65 -75.82,-102 -75.82,-102 0,0 40.69,-113.25 0,-147.3 -40.69,-34.04 5.97,-67.81 0,-102 -5.97,-34.18 0,-158.55 0,-158.55 -47.61,-66.19 -100.37,-97.12 -150.01,-108.51l-4.34 -17.91 -25.1 -105.66c0,0 122.08,-233.97 -75.95,-356.45 -13.99,-8.76 -28.65,-16.48 -43.8,-23.02 -15.15,-6.55 0,-5.7 -1.09,-15.33 -2.71,-34.99 -10.99,-122.08 -28.75,-179.17 -10.31,-32.83 -23.74,-54.94 -40.7,-49.92 -4.15,1.18 -7.97,3.37 -11.12,6.35 -8.06,7.31 -15.14,15.68 -21.01,24.83 -5.88,9.15 0,0 0,0 -0.24,0.54 -0.56,1.05 -0.96,1.49 -24,62.26 -52.08,170.09 -0.94,249.84 43.4,67.82 101.86,161 144.31,228.81l1.36 2.17 2.58 4.21 -4.48 2.85 0 10.44 3.94 57.1 -50.07 754.67c-9.85,-2.83 -19.96,-5 -30.11,-6.36 -13.03,-1.92 -26.36,-2.89 -39.59,-2.89 -1.4,0 -2.84,0.03 -4.2,0.03 -28.63,-112.44 -107.16,-217.01 -122.08,-334.47 -1.44,-11.7 -2.24,-23.59 -2.32,-35.41 1.22,-73.92 19.67,-148.11 18.18,-221.9 0,-13.56 0,-27.13 -1.36,-40.69l0 0c0,-3.66 -0.68,-7.46 -1.09,-11.26 -15,-108.92 -82.96,-203.59 -181.34,-252.69 -34.04,-16.95 -70.94,-28.21 -104.03,-46.79 -76.5,-42.87 -125.46,-120.18 -194.91,-173.21 -51.68,-39.47 -128.85,-60.63 -186.5,-40.69 -30.38,4.48 -60.98,11 -90.73,18.78l0 -0.05c-72.79,19.01 -142.84,48.19 -207.7,86.26 -8.81,5.29 -17.63,10.72 -26.04,16.96 -18.3,11.97 -32.87,28.99 -41.86,48.97 -4.62,13.42 -6.99,27.54 -6.99,41.75 0,3.66 0.16,7.36 0.48,11.01 0,12.88 0,26.04 0.81,38.93 -3.8,217.01 -237.63,384.93 -256.89,596.79 0,5.02 -0.82,10.04 -1.09,15.06 0,1.49 0,2.98 0,4.61 0,6.1 0,12.34 0,18.58l0 0c0,2.85 0,5.56 0,8.41 0,2.84 0,5.69 0,8.55 3.39,92.91 51.68,179.44 60.49,271.94 0.82,8.28 1.22,16.41 1.36,24.69 -1.44,42.46 -9.66,84.52 -24.03,124.48 -29.28,7.79 -57.71,19.36 -84.18,34.18 -71.07,45.7 -199.38,124.64 -246.18,275.6 -11.74,38.37 -17.8,78.38 -17.8,118.5 0,0.83 0,1.67 0,2.51 -0.56,144.74 -14.45,289.71 -39.73,431.89 -5.7,36.01 -14.17,71.59 -24.82,106.29 -0.68,2.33 -1.03,4.73 -1.03,7.14 0,1.11 0.07,2.22 0.22,3.33l-28.21 366.21 -5.02 64.43 -7.05 91.69c0,0 2.03,5.56 5.01,14.92 4.37,13.85 8.16,28.01 11.11,42.28 4.66,18.34 7.03,37.18 7.03,56.07 0,13.03 -1.12,26.06 -3.34,38.9 -2.8,13.38 -9.74,25.61 -19.82,34.85 -0.86,0.76 -1.64,1.63 -2.3,2.58 -8,11.25 -15.19,44.76 -21.43,93.31 -2.44,18.99 -4.75,40.7 -7.05,63.21 -13.57,144.45 -21.97,360.65 -27.13,539.42 -4.89,176.32 -6.65,315.62 -6.65,315.62 22.82,14.7 47.3,26.83 72.83,36.06 -1.89,4.74 -3.93,9.63 -5.83,14.78 -22.93,59.78 -37.99,122.59 -44.24,186.35 -11.4,133.33 25.9,281.44 211.86,357.67 11.88,4.95 24.13,9.15 36.51,12.52 40.69,10.85 70.66,7.87 92.77,-5.7 0,8 0.95,15.73 1.36,23.46 1.9,33.1 3.53,63.35 4.34,88.71 5.84,158.69 45.17,436.2 45.17,436.2 0,0 13.57,113.39 1.77,147.3 -11.81,33.91 0,169.95 0,169.95 0,0 40.69,67.82 0,102 -40.7,34.18 -52.77,203.45 -40.7,226.64 0.38,0.81 0.61,1.68 0.68,2.57 8.95,56.29 -41.64,892.61 -41.64,892.61 0,0 -47.88,128.04 -85.99,260.96 -37.17,129.4 -65.11,263.4 -30.66,288.5 17.09,12.47 56.83,21.83 107.29,29.02 0,5.56 -0.81,11.13 -1.36,16.82 -4.88,59.82 -12.61,124.24 -23.73,140.52 -16.14,23.06 -33.1,201.82 -41.37,298.39l-0.82 10.72c-17.27,41.09 -32.04,83.56 -43.63,126.64 -11.59,43.07 -129.81,325.52 -85.86,410.02 4.06,7.63 9.54,14.41 16.11,19.99l-0.01 0c1.31,1.37 2.72,2.64 4.21,3.79 62.53,50.05 219.19,60.5 276.02,62.8l-2.17 80.57 0 2.98 73.91 0.01 0 -2.04c0,-10.17 1.63,-56.83 4.07,-119.22 0,-11.13 0.82,-22.79 1.36,-34.72 0,-9.36 0.95,-18.86 1.36,-28.62 21.2,-56.45 32.17,-116.43 32.17,-176.78 0,-1.41 0,-2.88 0,-4.29 -0.02,-70.91 9.68,-141.73 28.5,-210.02 9.21,-35.14 21.89,-69.53 37.55,-102.35 15.67,-32.83 23.06,-122.08 -9.09,-208.47 -6.12,-17.16 -15.34,-33.08 -27.14,-46.94 0,-2.85 0,-5.69 0,-8.68 0,-2.98 0,-6.51 0,-9.9 0,-3.38 0,-5.56 0,-8.54 0.03,-3.1 -0.06,-6.54 -0.06,-9.69 0,-55.12 5.83,-110.33 17.39,-164.21 0,-0.43 -0.02,-0.89 -0.02,-1.34 0,-0.45 0.02,-0.91 0.05,-1.36 1.08,-4.75 2.3,-9.22 3.52,-13.56l0.82 -2.99 24.01 0.82c73.65,2.03 127.76,2.03 127.76,2.03 0,0 58.73,-300.29 52.9,-430.5 0,-5.7 0,-11.66 0,-17.64 -2.03,-129.39 35.54,-305.31 35.54,-305.31l47.33 -459.11c0,0 -23.46,-79.48 0,-135.63 14.51,-35 44.49,-99.97 65.38,-144.72 9.76,-20.76 17.49,-37.03 20.75,-44.09l1.89 -3.79c-7.37,-2.53 -14.42,-6.07 -20.87,-10.45l-0.01 0c-19.13,-12.75 -36.21,-37.7 21.02,-74.46 88.03,-56.7 58.73,-198.3 58.73,-198.3 0,0 -25.91,-51 4.61,-96.3 30.53,-45.3 0,-215.25 0,-215.25 25.13,-44.84 45.37,-92.53 60.23,-141.71 21.84,-67.82 77.04,-399.44 103.08,-559.36 8.54,-52.48 13.56,-86.39 13.56,-86.39l0.82 8.27 0.81 8.95 0 -0.03 7.32 75.55 0.95 10.03 13.57 142.83c0,0 27.12,375.44 10.17,522.6 0,0.95 0,1.89 0,2.71 -1.32,15.21 -4.65,30.27 -9.89,44.62 -31.2,70.53 -25.5,350.75 -23.88,412.74 0,5.01 0,9.09 0,12.47 0,3.39 -22.11,55.34 -16.54,95.76l-0.01 0c1.12,10.23 4.83,20.04 10.72,28.48 7,11.37 10.71,24.48 10.71,37.84 0,2.08 -0.09,4.18 -0.27,6.24l0 1.36c-0.14,6.52 -0.68,13.07 -1.62,19.53 -4.1,26.18 -11.06,52.01 -20.61,76.75 -9.55,24.73 -31.47,82.74 -19.53,126 0,0 0,0 0,0 1.41,5.63 4.06,10.87 7.71,15.36 2.75,4.98 4.29,10.57 4.48,16.27 -0.03,0.24 -0.05,0.49 -0.05,0.74 0,0.25 0.02,0.5 0.05,0.75 10.99,91.28 -17.36,494.25 -34.18,714.79 -6.79,87.08 -11.67,145.67 -11.67,145.67l-46.52 481.5 4.62 3.26c5.29,3.8 15.19,10.31 28.48,18.17 0,0 0,0 0,1.09l-2.04 14.51c-6.64,46.39 -15.6,100.37 -25.36,141.6 -0.82,3.13 -1.49,6.11 -2.31,8.96 -17.78,3.1 -34.77,9.89 -49.78,19.93 -98.74,175.37 -55.07,314.39 0,354.82 15.6,11.39 26.17,43.26 33.23,82.87l13.56 174.83c0,7.06 0,13.57 0,20.08 0.02,5.44 0.9,10.85 2.59,16.01l4.2 53.03 5.7 73.79 45.03 0.01 0 -89.39 2.44 0c71.07,2.44 185.68,5.42 235.59,1.49l1.36 0.01c5.29,0 9.77,-0.95 13.56,-1.5 2.7,-0.41 5.36,-1.14 7.88,-2.17 26.45,-12.75 92.36,-199.66 32.96,-242.11 -59.41,-42.45 -72.57,-162.76 -72.57,-162.76 -5.15,-15.73 -10.31,-30.66 -15.6,-44.9 0,-3.12 0,-6.1 0,-9.22 -1.63,-58.19 -0.95,-121.26 7.06,-155.44 8.95,-37.57 13.56,-116.51 15.46,-185.68 0,-5.29 0,-10.44 0,-15.6l0 -1.63c10.26,-2.58 20.43,-5.94 30.24,-9.9l2.17 -0.94c18.16,-7.6 35.23,-17.72 50.6,-29.99l166 -735.67 17.5 -85.58 99.69 -486.8c0,0 -35.13,-169.94 0,-198.16 12.89,-10.31 16.41,-54.25 15.6,-105.11 -1.36,-88.98 -15.6,-200.88 -15.6,-200.88 0,0 46.93,-73.65 70.53,-118.95 23.6,-45.3 0,-164.25 0,-164.25l46.26 -272.36c0,0 52.89,-322.94 181.88,-594.89 94.95,-200.06 34.45,-740.29 -27.12,-1027.83 -1.64,-7.46 -3.26,-14.79 -4.89,-21.84l0 -1.09c29.02,-14.38 64.56,-31.74 102.54,-49.91l14.38 -6.79c48.15,-22.65 99.15,-45.97 144.86,-65.37l2.98 -1.22c32.78,-14.2 66.73,-26.92 100.82,-37.67 10.02,-3.12 20.43,-5.29 30.88,-6.43 81.52,-5.27 -164.93,-435.77 -164.93,-435.77zm-1835.27 921.63l24.42 0c-2.85,5.29 -5.56,10.71 -8.28,16.14 -1.63,3.26 -3.25,6.38 -4.74,9.63 -8.95,18.59 -17.23,37.58 -24.01,56.16 2.71,-20.08 6.11,-41.91 9.9,-65.24 0.95,-5.16 1.9,-11.26 2.71,-16.69zm-65.92 353.6c0.04,-0.32 0.06,-0.64 0.06,-0.95 0,-0.32 -0.02,-0.64 -0.05,-0.95l-2.03 -6.38c-1.5,-4.34 -2.85,-8.68 -4.21,-13.56 8.4,-2.53 16.95,-5.38 25.63,-8.54l1.76 0c0,1.49 0,2.98 0,4.48 -0.67,6.37 -1.49,12.74 -2.3,18.98l0 0c0.04,0.4 0.06,0.81 0.06,1.22 0,0.4 -0.02,0.81 -0.05,1.22 0,5.15 -1.22,10.04 -1.77,14.92 -1.22,9.76 -2.44,19.26 -3.52,28.34 -2.58,-8.54 -5.16,-16.95 -7.87,-25.22 -2.72,-4.47 -4.21,-9.09 -5.71,-13.56z"/>
    <path class="fil14" d="M7712.6 3927.85l-146.49 51.81 -53.17 -88.16c-40.69,-67.82 -97.11,-160.59 -138.75,-228 -73.51,-118.55 22.65,-299.21 22.65,-299.21 0,0 17.36,-181.34 79.21,-237.23 61.85,-55.88 79.07,237.23 79.07,237.23 248.35,112.85 115.29,378.28 115.29,378.28l24.15 105.26 18.04 80.02z"/>
    <path class="fil5" d="M7712.6 3927.85l-146.49 51.81 -53.17 -88.16 0 -7.73c0,0 83.96,-57.65 181.89,-35.94l17.77 80.02z"/>
    <path class="fil15" d="M7476.05 4521.92l73.38 -62.12 -36.76 -559.08c0,0 189.89,-129.94 330.41,73.38 0,0 -5.7,124.24 0,158.15 5.7,33.9 -39.47,67.81 0,101.58 39.47,33.78 0,146.9 0,146.9 0,0 44.62,79.07 72.84,101.58 28.21,22.52 56.55,209.01 0,248.49 -56.56,39.47 -162.63,129.94 -162.63,169.41 0,39.48 -135.64,135.64 -135.64,135.64l-119.09 -157.48 -22.51 -356.45z"/>
    <path class="fil14" d="M5889.13 7915.77c-273.71,-116.1 -212.95,-399.71 -161.4,-542.53 10.26,-28.9 22.52,-57.3 36.23,-84.63l153.54 -93.18c0,0 31.33,79.89 64.83,187.04 77.7,249.28 167.08,643.84 -93.2,533.3z"/>
    <path class="fil14" d="M6265.38 10503.54c-18.48,35.99 -32.22,74.56 -40.66,114.2 -11.94,56.18 -17.98,113.67 -17.98,171.17 0,7.65 0.1,15.61 0.3,23.16 1.09,45.17 4.89,74.74 4.89,74.74l-304.91 209.69c0,0 1.76,-24.55 4.75,-60.63 7.87,-96.03 24.28,-274.25 39.74,-297.31 10.71,-16.01 18.17,-80.29 22.92,-139.98 4.74,-59.68 6.64,-112.03 6.64,-112.03 0,0 366.91,-137.5 284.31,16.99z"/>
    <path class="fil14" d="M6985.46 10653.96c0,0 0,58.32 -2.16,126.14 -2.17,67.81 -6.24,147.84 -14.79,185.14 -7.87,34.18 -8.41,96.98 -6.91,154.89 2.03,67.82 6.91,128.85 6.91,128.85 0,0 -311.28,-294.33 -279.54,-317.65 8.54,-6.24 16.95,-31.33 24.68,-64.7 9.49,-40.69 18.04,-94.94 24.42,-141.06 7.59,-54.94 12.34,-99.15 12.34,-99.15l235.05 27.54z"/>
    <path class="fil5" d="M6265.38 10503.54c-18.48,35.99 -32.22,74.56 -40.66,114.2 -83.11,-2.18 -167.08,-8.88 -249.52,-19.22 4.61,-58.32 6.64,-112.04 6.64,-112.04 0,0 366.14,-137.43 283.54,17.06z"/>
    <path class="fil5" d="M6985.46 10653.96c0,0 0,58.32 -2.16,126.14 -97.12,24.82 -196.95,-24.82 -245.23,-54.25 7.59,-54.94 12.34,-99.15 12.34,-99.15l235.05 27.26z"/>
    <path class="fil16" d="M7622.81 7769.01c-124.25,271.27 -175.11,593 -175.11,593l-45.17 271.27c0,0 22.66,118.55 0,163.71 -22.65,45.16 -67.81,118.68 -67.81,118.68 0,0 33.91,276.69 0,304.9 -33.91,28.21 0,197.62 0,197.62l-112.99 569.67 -158.15 734.05c-152.45,124.38 -355.36,-33.77 -355.36,-33.77l44.76 -480.01c0,0 67.82,-840.93 39.61,-875.38 -28.21,-34.45 11.26,-141.2 11.26,-141.2 0,0 39.6,-101.73 11.39,-141.2 -28.21,-39.46 5.57,-124.24 5.57,-124.24 0,0 -11.26,-344.51 22.65,-423.58 33.91,-79.08 0,-568.18 0,-568.18l-13.56 -152.31 -7.87 -84.37 -0.68 -8.27c0,0 -5.15,33.77 -13.56,86.12 -24.96,159.38 -78.13,489.65 -99.15,557.6 -14.27,48.85 -33.77,96.36 -57.88,141.21 -24.12,44.86 29.29,169.41 0,214.58 -29.3,45.16 -4.48,96.03 -4.48,96.03 0,0 28.21,141.19 -56.56,197.62 -84.77,56.42 0,84.77 0,84.77 0,0 -62.12,135.63 -84.63,191.92 -22.52,56.29 0,135.63 0,135.63l-45.17 457.37c0,0 -39.61,191.92 -33.91,321.86 5.69,129.94 -50.87,429.14 -50.87,429.14 0,0 -434.84,0 -501.85,-50.86 -67,-50.86 111.87,-547.04 111.87,-547.04 0,0 50.86,-869.68 39.46,-892.2 -11.39,-22.51 0,-192.06 39.61,-225.83 39.61,-33.77 0,-101.73 0,-101.73 0,0 -11.26,-135.63 0,-169.4 11.26,-33.77 -1.76,-146.89 -1.76,-146.89 0,0 -37.85,-276.7 -43.41,-434.84 -5.56,-158.15 -33.91,-513.79 -33.91,-513.79 0,0 29.57,-219.99 34.05,-324.7 1.63,-38.52 18.85,-86.67 40.69,-131.98 24.24,-51.11 52.56,-100.55 84.04,-147.56 31.48,-47.01 1338.09,-395.53 1394.24,-356.19 14.92,10.44 36.62,81.38 58.05,184.06 59.68,286.86 118,825.33 26.59,1024.71z"/>
    <circle class="fil17" cx="6798.42" cy="3927.85" r="389.68"/>
    <path class="fil5" d="M7596.22 6744.57c-44.9,23.06 -75,38.93 -75,38.93 0,0 -632.46,299.34 -812.32,282.39 -139.16,-13.57 -494.39,-5.84 -649.15,-2.04 24.25,-51.1 52.57,-100.55 84.05,-147.56 31.48,-47.01 1338.22,-395.39 1394.37,-356.05 14.92,10.71 36.62,81.38 58.05,184.33z"/>
    <path class="fil15" d="M6527.29 4550.14c0,0 -360.92,56.96 -446.1,112.85 -85.18,55.88 -253.91,163.84 -253.91,395.37 0,231.53 -39.47,468.75 -62.12,536.44 -22.65,67.68 355.77,615.51 355.77,615.51l-135.64 830.21c0,0 542.54,-16.95 723.21,0 180.67,16.95 812.86,-282.39 812.86,-282.39 0,0 372.72,-197.62 451.8,-203.45 79.07,-5.84 -158.15,-434.84 -158.15,-434.84 0,0 -367.17,-694.45 -305.05,-807.44 62.12,-112.98 107.69,-276.69 107.69,-276.69l-67.81 -575.91c0,0 -101.59,-33.91 -186.36,28.21 -84.78,62.13 -372.73,28.21 -372.73,28.21l-463.46 33.92z"/>
    <path class="fil5" d="M5914.63 5555.32l-141.61 39.48 -39.19 531.41c0,0 50.86,141.19 0,186.36 -50.87,45.17 -62.12,1010.88 -62.12,1010.88 0,0 163.84,118.55 355.76,28.21 0,0 -28.21,-107.29 56.56,-496.96 84.77,-389.67 84.64,-587.3 84.64,-587.3 0,0 0,-485.7 39.61,-564.78 39.6,-79.08 0,-276.7 0,-276.7 0,0 -79.08,-107.29 -73.52,-146.75 5.57,-39.47 -220.13,276.15 -220.13,276.15z"/>
    <path class="fil5" d="M5982.31 7382.86c-37.01,12.46 -75.97,18.85 -115.07,18.85 -47.91,0 -95.32,-9.6 -139.49,-28.1 10.24,-28.86 22.5,-57.27 36.21,-84.6l153.54 -93.18c0,0 31.85,79.88 64.81,187.03z"/>
    <path class="fil15" d="M5906.08 5555.32l-141.19 39.47 -39.47 531.42c0,0 50.86,141.19 0,186.36 -50.86,45.17 -62.12,1010.88 -62.12,1010.88 0,0 163.98,118.41 355.77,27.68 0,0 -28.21,-107.29 56.42,-496.97 84.64,-389.67 84.77,-587.3 84.77,-587.3 0,0 0,-485.7 39.47,-564.78 39.47,-79.08 0,-276.69 0,-276.69 0,0 -79.07,-107.29 -73.38,-146.76 5.7,-39.47 -220.27,276.69 -220.27,276.69z"/>
    <path class="fil5" d="M7351.81 5639.96c0,0 -73.38,632.46 -288.09,751.14 0,0.01 480.01,-135.49 288.09,-751.14z"/>
    <path class="fil5" d="M6273.25 5696.52c0,0 265.3,129.8 203.45,220.13 -61.85,90.33 -203.45,-220.13 -203.45,-220.13z"/>
    <path class="fil5" d="M6273.25 5956.26c0,0 169.4,175.1 135.63,237.23 -33.77,62.12 -135.63,-237.23 -135.63,-237.23z"/>
    <path class="fil5" d="M7639.76 4504.97c0,0 66.47,112.85 72.84,186.37 6.37,73.51 -72.84,-186.37 -72.84,-186.37z"/>
    <path class="fil5" d="M7639.76 4352.52c0,0 33.37,-28.35 118.55,0 85.18,28.35 -118.55,0 -118.55,0z"/>
    <path class="fil5" d="M7313.7 7653.18c-36.48,5.1 -73.48,7.78 -110.3,7.78 -103.83,0 -206.9,-20.71 -302.68,-60.69l-71.21 182.29 -7.87 -84.36c11.66,-70.8 34.31,-146.62 79.07,-165.75 -0.02,0.01 156.77,124.94 412.99,120.73z"/>
    <path class="fil5" d="M6155.24 7890.41c0,0 347.36,72.02 444.75,59.27l-444.75 -59.27z"/>
    <path class="fil5" d="M6191.32 7981.42c0,0 148.25,-6.38 222.31,23.33l-222.31 -23.33z"/>
    <path class="fil5" d="M6208.28 8042.86c67.54,14.24 136.35,23.5 205.31,27.07l-205.31 -27.07z"/>
    <path class="fil5" d="M6199.73 8820.04c6.38,-4.2 296.5,-72.02 332.58,-23.33l-332.58 23.33z"/>
    <path class="fil5" d="M6199.73 8909.02c0,0 252.01,-29.7 258.38,0 6.37,29.7 -258.38,0 -258.38,0z"/>
    <path class="fil5" d="M6199.73 8989.45c0,0 268.96,-55.61 300.71,-42.04 31.74,13.56 -300.71,42.04 -300.71,42.04z"/>
    <path class="fil5" d="M6212.48 10886.98l-304.91 209.69c0,0 1.77,-24.55 4.75,-60.63 67.82,-166.83 156.12,-254.86 156.12,-254.86 68.76,-17.9 112.17,-1.35 139.16,31.06 1.09,45.03 4.88,74.74 4.88,74.74z"/>
    <path class="fil16" d="M6242.19 11075.37c-41.94,95.64 -63.65,199.3 -63.65,303.78 0,2.68 0,5.45 0,8.13 0.07,3.11 0.13,6.35 0.13,9.49 0,84.75 -22.39,168.22 -64.68,241.64 -6.3,10.68 -13.52,20.99 -21.41,30.62 -7.88,9.63 -211.86,-1.76 -286.05,-63.21 -8.33,-6.57 -15.14,-14.92 -19.94,-24.4 -42.45,-84.63 82.6,-408.67 82.6,-408.67 65.65,-249.83 198.98,-383.3 198.98,-383.3 237.49,-61.44 174.02,285.92 174.02,285.92z"/>
    <path class="fil5" d="M6114.01 11637.71c-6.32,10.71 -13.54,21.01 -21.43,30.64 -7.88,9.64 -211.86,-1.76 -286.05,-63.2 36.48,-120.72 152.86,-485.98 207.39,-423.86 51.26,58.34 86.93,338.96 100.09,456.42z"/>
    <path class="fil16" d="M6084.99 11203.95l-14.79 547.15 71.07 0c0,0 11.53,-480.01 43.27,-547.15 31.74,-67.14 -99.55,0 -99.55,0z"/>
    <path class="fil5" d="M6968.51 11248.98c0,0 -311.29,-294.33 -279.55,-317.65 8.55,-6.24 16.95,-31.33 24.69,-64.7 59.81,-10.44 162.76,14.51 247.94,253.5 2.04,67.82 6.92,128.85 6.92,128.85z"/>
    <path class="fil16" d="M7015.03 11577.22c-2.38,1.01 -4.89,1.75 -7.46,2.17 -36.62,6.37 -171.57,2.71 -247.12,0 -28.76,-0.95 -51.62,-24.53 -51.67,-53.32 0,-20.34 0,-45.17 -1.64,-71.61 -3.52,-83.55 -13.56,-182.97 -43.53,-205.35 -53.04,-40.7 -94.95,-178.77 0,-353.6 0,0 182.02,-139.03 313.31,278.86 0,0 12.75,119.22 69.86,161.54 57.1,42.32 -6.25,229.24 -31.75,241.31z"/>
    <path class="fil5" d="M7007.3 11579.39c-36.63,6.38 -171.58,2.71 -247.13,0 -28.75,-0.95 -51.62,-24.53 -51.67,-53.32 0,-20.34 0,-45.17 -1.63,-71.61 22.92,-101.19 55.89,-205.35 98.34,-229.09 0.26,-0.12 128.71,-14.63 202.09,354.02z"/>
    <polygon class="fil16" points="6686.66,11213.04 6720.84,11668.36 6764.24,11668.36 6764.24,11174.25 "/>
    <path class="fil5" d="M6792.72 3306.92c-122.93,9.16 -242.25,47.48 -347.51,111.66 -27.13,16.41 -54.25,36.35 -65.51,65.78 -9.77,25.5 -5.7,54.26 -5.29,81.38 3.66,233.57 -256.76,410.3 -248.62,643.72 3.26,92.64 49.78,178.91 58.32,271.27 14.25,154.09 -76.9,295.83 -164.25,423.46 7.03,0.39 14.27,0.61 21.33,0.61 82.78,0 162.98,-29.34 226.23,-82.69 52.58,174.78 79.17,356.72 79.17,539.37 0,136.58 -15.12,273.61 -44.69,406.76l124.92 0c2.4,-0.26 4.71,-0.35 7.01,-0.35 10.05,0 20.04,1.6 29.58,4.73 10.96,5.2 20.79,12.54 28.9,21.56 116.78,116.24 195.04,288.09 150.41,446.79l265.84 -99.7c63.62,-23.87 128.18,-48.15 183.52,-87.48 55.34,-39.34 101.72,-96.44 113.39,-163.44 7.18,-40.69 4.88,-89.25 38.38,-112.85 16.49,-8.79 34.13,-15.31 52.37,-19.39 72.97,-25.77 105.25,-110.14 120.17,-186.1 13.12,-67.55 19.79,-136.22 19.79,-205.03 0,-26.04 -1.04,-52.2 -2.87,-78.1 -11.8,-158.69 -58.73,-319.83 -20.08,-474.72 21.84,-86.94 70.4,-167.91 74.33,-257.7 6.38,-147.98 -109.32,-275.48 -126.55,-422.64 -12.07,-102.54 24.95,-206.3 12.89,-308.84 -13.55,-107.31 -78.76,-201.4 -174.55,-251.82 -32.69,-16.82 -67.82,-28.08 -100.1,-46.66 -73.65,-42.73 -120.71,-119.63 -187.58,-172.53 -66.87,-52.9 -178.22,-72.83 -228.54,-4.07l109.59 -42.98z"/>
    <path class="fil18" d="M6792.72 3289.96c-122.93,9.16 -242.25,47.48 -347.51,111.67 -27.13,16.4 -54.25,36.35 -65.51,65.78 -9.77,25.49 -5.7,54.25 -5.29,81.38 3.66,233.56 -256.76,410.29 -248.62,643.85 3.26,92.51 49.78,178.77 58.32,271.28 14.25,154.08 -76.9,295.82 -164.25,423.58 6.87,0.36 13.8,0.57 20.69,0.57 82.97,0 163.39,-29.31 226.89,-82.66 52.34,174.78 79.14,356.67 79.14,539.24 0,136.53 -15.12,273.52 -44.67,406.61l124.92 0c2.27,-0.21 4.48,-0.31 6.66,-0.31 10.17,0 20.29,1.64 29.93,4.84 10.96,5.1 20.82,12.41 28.89,21.44 116.78,116.37 195.04,288.09 150.41,446.78l265.84 -99.69c63.62,-23.88 128.18,-48.16 183.52,-87.49 55.34,-39.33 101.72,-96.44 113.39,-163.44 7.18,-40.69 4.88,-89.25 38.38,-112.84 16.49,-8.79 34.13,-15.32 52.37,-19.4 72.97,-25.77 105.25,-110.13 120.17,-186.09 13.3,-67.96 20.1,-137.29 20.1,-206.63 0,-25.5 -1.05,-51.27 -2.75,-76.66 -11.8,-158.69 -58.73,-319.82 -20.07,-474.71 21.84,-86.95 70.39,-167.92 74.32,-257.71 6.38,-147.98 -109.32,-275.47 -126.54,-422.64 -12.08,-102.54 24.95,-206.16 12.88,-308.84 -13.6,-107.42 -78.87,-201.5 -174.57,-251.93 -32.69,-16.82 -67.82,-28.07 -100.1,-46.52 -73.65,-42.86 -120.71,-119.76 -187.58,-172.66 -66.87,-52.89 -178.22,-72.83 -228.54,-4.07l109.18 -42.73z"/>
    <g>
     <path class="fil5" d="M6374.16 3492.33c-0.53,5.17 -0.81,10.43 -0.81,15.65 0,0.02 0,0.07 0,0.09 0.4,-5.16 0.67,-10.45 0.81,-15.74z"/>
     <path class="fil19" d="M7359.95 4035.27c4.88,-71.89 20.89,-144.04 14.92,-215.66 -4.48,71.89 -20.48,144.05 -14.92,215.66z"/>
     <path class="fil5" d="M6184.14 4392.67c-7.87,-84.09 -47.07,-162.76 -56.29,-246.72 -1.43,12.13 -2.19,24.48 -2.19,36.71 0,3.21 0.08,6.49 0.15,9.66 3.26,91.55 48.7,177.14 57.92,268.29 1.17,-11.96 1.79,-24.07 1.79,-36.15 0,-10.59 -0.49,-21.24 -1.38,-31.79l0 0z"/>
     <path class="fil19" d="M7414.2 4726.73c-9.76,42.73 -14.8,86.53 -14.8,130.42 0,12.63 0.5,25.48 1.28,38.05 1.28,-32.94 5.89,-65.74 13.5,-97.78 21.84,-86.94 70.39,-167.91 74.33,-257.71 0.15,-3.7 0.25,-7.52 0.25,-11.24 0,-12.18 -0.82,-24.47 -2.39,-36.51 -10.59,80.7 -52.77,155.84 -72.17,234.77z"/>
     <path class="fil19" d="M6267.41 4734.06c-56.53,47.37 -126.62,75.91 -200.2,81.38 -15.46,24.14 -31.46,47.74 -47.33,71.07 6.85,0.39 13.78,0.61 20.67,0.61 82.97,0 163.39,-29.32 226.89,-82.66 49.24,164.84 76.2,335.99 78.94,507.83 0.14,-12.57 0.37,-25.62 0.37,-38.44 0,-182.77 -26.79,-364.85 -79.24,-539.82l-0.1 0.03z"/>
     <path class="fil19" d="M7416.78 5483.98c-14.92,75.96 -47.2,160.32 -120.17,185.95 -18.23,4.05 -35.92,10.68 -52.36,19.55 -33.5,23.6 -31.19,72.43 -38.38,112.85 -11.67,67 -57.92,123.97 -113.39,162.76 -55.48,38.79 -119.9,63.74 -183.52,87.62l-253.63 94.94c-1.28,25.43 -5.47,50.73 -12.22,75.26l265.84 -99.69c63.61,-23.87 128.17,-48.15 183.51,-87.49 55.34,-39.33 101.73,-96.43 113.39,-163.44 7.19,-40.69 4.89,-89.24 38.39,-112.84 16.51,-8.78 34.15,-15.3 52.39,-19.38 72.97,-25.77 105.25,-110.14 120.17,-186.1 13.1,-67.09 19.72,-135.53 19.72,-203.96 0,-11.94 -0.26,-24.28 -0.65,-36.1 -1.64,56.86 -8.25,114.17 -19.14,170.05l0.05 0.02z"/>
     <path class="fil5" d="M6492.7 5705.75c-8.06,-9.07 -17.9,-16.41 -28.88,-21.57 -9.74,-3.18 -19.94,-4.82 -30.19,-4.82 -2.09,0 -4.21,0.07 -6.3,0.2l-110.81 0c-4.34,23.6 -8.95,47.2 -13.56,70.67l124.92 0c2.17,-0.13 4.38,-0.22 6.56,-0.22 10.16,0 20.28,1.63 29.93,4.83 10.97,5.11 20.82,12.42 28.89,21.44 85.45,85.18 150.14,199.93 161.27,317.65 13.68,-140.79 -59.29,-285.65 -161.83,-388.18z"/>
    </g>
    <path class="fil5" d="M5872.99 6167.99c0,0 100.91,-42.32 123.42,0 22.52,42.32 -123.42,0 -123.42,0z"/>
    <path class="fil5" d="M5908.66 6240.55c0,0 100.91,-42.32 123.57,0 22.65,42.32 -123.57,0 -123.57,0z"/>
   </g>
   <g id="_5f43f84a-a268-4bb5-a31a-6b0c09aee323" data-name="leaves">
    <path class="fil4" d="M12162.9 764.31c0,0 -516.09,-31.06 -455.19,330.54 0,0 -12.07,63.89 45.84,92.91 0,0 0.95,-27.12 52.9,-17.76 13,2.16 26.22,3.29 39.41,3.29 5.54,0 11.11,-0.2 16.62,-0.58 25.24,-1.75 49.27,-11.71 68.35,-28.35l0 0c0,0 144.99,-59.81 201.42,-296.9 0,0 41.77,-51.81 40.69,-65.11l-87.08 37.3c0,0 29.71,62.8 6.24,115.02 0,0 -2.71,-112.84 -19.53,-110.13 -3.39,0 -45.17,21.7 -45.17,21.7 0,0 51.14,109.46 12.48,189.07 0,0 14.65,-134.82 -28.48,-181.07l-61.58 36.48c0,0 59.81,112.99 19.26,205.22 0,0 10.44,-141.47 -32.15,-196.54l-55.61 43.27c0,0 56.29,110.82 22.38,187.31 0,0 -4.48,-164.8 -34.04,-177.14 0,0 -48.56,42.86 -55.89,60.49 0,0 38.39,81.38 14.52,123.43 0,0 -14.66,-109.59 -27.13,-110.14 0,0 -48.43,72.7 -53.45,122.08 2.34,-46.04 16.75,-90.75 41.66,-129.52 -27.92,5.27 -53.72,18.69 -74.07,38.51 -20.35,19.82 7.46,-51.41 86,-56.02 0,0 40.01,-55.06 50.72,-58.46 0,0 -78.12,-6.51 -125.46,14.52 0,0 41.64,-48.56 139.84,-27.13l54.25 -44.76c0,0 -102.81,-13.57 -146.48,1.49 0,0 50.18,-42.86 161.27,-11.66l59.68 -35.68c0,0 -87.62,-18.98 -139.84,-12.07 0,0 55.06,-29.7 157.33,2.44l42.73 -19.13c0,0 -64.29,-12.61 -83.01,-14.65 -18.73,-2.03 -19.81,-7.18 -19.81,-7.18 12,-1.98 24.24,-3.01 36.44,-3.01 28.85,0 57.46,5.66 84.14,16.58 26.68,10.92 91.29,-32.96 89.8,-38.66z"/>
    <path class="fil4" d="M11427.35 471.07c0,0 -434.03,280.9 -170.76,536.03 0,0 28.07,58.59 91.96,47.74 0,0 -15.19,-22.24 32.14,-45.71 16.77,-8.42 32.5,-18.91 46.78,-31.07 19.33,-16.37 32.83,-38.61 38.4,-63.32l0 -0.01c0,0 81.38,-134.28 -13.56,-358.62 0,0 2.98,-66.46 -6.24,-76.23l-48.01 81.38c0,0 61.17,32.96 73.24,88.84 0,0 -69.03,-89.11 -81.38,-77.03 -2.44,2.44 -23.6,44.35 -23.6,44.35 0,0 106.2,57.78 122.07,144.72 0,0 -67.81,-117.32 -130.34,-128.85l-28.21 65.1c0,0 115.29,55.61 137.26,153.95 0,0 -75.54,-120.17 -142.41,-139.3l-18.99 67.82c0,0 111.22,56.42 128.99,138.35 0,0 -101.18,-129.94 -132.38,-122.08 0,0 -13.56,63.21 -9.22,81.38 0,0 78.94,42.32 84.91,90.88 0,0 -76.77,-79.62 -86.67,-72.98 0,0 4.07,87.22 29.43,130.35 -25.34,-38.47 -40.29,-83 -43.16,-128.99 -19.34,20.82 -32.18,46.86 -36.87,74.88 -4.7,28.01 -24.42,-45.85 36.21,-96.03 0,0 0,-67.82 6.1,-77.18 0,0 -66.73,40.69 -92.5,85.99 0,0 4.88,-63.74 96.98,-104.16l17.63 -68.5c0,0 -91.14,49.65 -117.05,88.03 0,0 15.05,-64.29 122.88,-104.98l27.13 -64.16c0,0 -81.38,36.76 -119.9,73.24 0,0 27.13,-56.69 128.31,-91.28l23.06 -40.69c0,0 -59.27,27.94 -75.55,37.44 -16.27,9.5 -20.2,5.97 -20.2,5.97 28.68,-29.56 65.11,-50.56 105.08,-60.63 39.98,-10.07 53.05,-80.84 48.44,-84.64z"/>
    <path class="fil4" d="M10766.81 798.36c0,0 -259.47,447.59 90.88,555.15 0,0 51.67,39.47 103.62,0 0,0 -23.46,-12.75 8,-55.21 10.92,-15.14 20.05,-31.58 27.12,-48.83 6.01,-14.33 9.12,-29.74 9.12,-45.29 0,-9.64 -1.2,-19.27 -3.55,-28.62l0 -0.01c0,0 11.53,-156.52 -174.97,-313.45 0,0 -27.12,-60.49 -40.69,-64.97l-5.83 94.95c0,0 69.44,1.63 105.66,45.98 0,0 -102,-48.16 -107.15,-32.01 -1.09,3.25 -0.95,50.18 -0.95,50.18 0,0 121.93,3.67 176.19,73.93 0,0 -113.93,-73.65 -174.56,-55.75l4.34 70.8c0,0 127.9,-2.71 192.06,75 0,0 -122.08,-72.83 -189.89,-59.54l13.56 69.04c0,0 124.79,0 177.68,64.83 0,0 -149.2,-69.99 -173.47,-49.23 0,0 16.41,62.66 28.89,77.18 0,0 89.52,1.89 116.91,42.45 0,0 -104.57,-36.22 -110.4,-25.64 0,0 43.27,75.82 85.45,102.67 -40.02,-22.65 -73.46,-55.44 -96.97,-94.92 -3.71,12.92 -5.6,26.41 -5.6,39.88 0,14.76 2.25,29.46 6.67,43.53 4.42,14.06 -42.59,-29.71 -11.4,-102 0,0 -31.19,-60.49 -29.43,-71.48 0,0 -40.69,66.86 -43.4,118.54 0,0 -24.69,-59 39.06,-136.72l-15.33 -69.17c0,0 -58.73,85.58 -64.43,131.57 0,0 -15.73,-64.16 61.99,-149.2l-5.16 -69.31c0,0 -56.15,69.85 -73.51,119.63 0,0 -1.9,-62.67 72.84,-139.57l2.03 -46.79c0,0 -40.69,51.67 -50.32,67.81 -9.63,16.14 -15.32,13.83 -15.32,13.83 12.23,-39.37 35.15,-74.67 66.2,-101.85 31.04,-27.17 9.76,-96.17 4.06,-97.39z"/>
   </g>
   <path class="fil4" d="M15715.84 8258.38c-13.57,9.9 -26.04,19.53 -39.34,28.89 -48.84,34.56 -100.49,66.14 -153.61,93.67 -279.13,147.16 -623.24,219.04 -958.39,267.87 -751.69,109.59 -1519.1,130.89 -2283.27,151.78 -2064.82,56.75 -4134.6,113.32 -6194.35,-17.3 -813.8,-51.54 -1645.52,-137.81 -2382.95,-402.29 -105.71,-37.8 -209.33,-79.49 -310.88,-125.06 -205.49,-92.37 -402.83,-204.81 -566.95,-339.09 -154.22,-125.86 -279.28,-270.45 -354.01,-434.84 -155.84,-342.34 -73.38,-726.86 104.57,-1062.42 73.75,-135.61 157.59,-266.6 249.49,-390.35 137.4,-188.93 288.9,-372.45 427.11,-561.25 491.76,-671 812.67,-1520.07 358.7,-2208.41 -130.48,-197.75 -319.01,-371.37 -425.34,-577.81 -135.64,-264.07 -125.19,-557.32 -82.06,-842.15 5.6,-36.17 11.52,-71.97 17.76,-107.42 73.65,-422.37 212.27,-877.42 639.66,-1141.1 443.93,-273.98 1074.35,-260.14 1625.3,-162.76 856.8,153 1647.15,471.47 2445.9,759.01 798.75,287.55 1634.39,550.27 2512.21,578.49 775.15,24.95 1679.3,-161.82 2193.75,-647.25 499.68,-471.46 1438.95,-507.41 2115.9,-222.58 464.68,195.45 811.37,547.56 957.58,943.61 29.48,79.36 50.98,162.06 63.61,245.82 8.58,56.5 13.01,113.92 13.01,171.2 0,20.07 -0.69,40.68 -1.66,60.61 -2.03,38.24 -5.96,76.09 -11.39,113.52 -113.12,781.53 -927.34,1397.99 -1422.26,2096.1 -241.84,340.98 -412.6,750.6 -246.31,1118.3 253.63,560.31 1135.66,759.56 1668.3,1176.5 100.1,75.61 188.69,166.5 261.82,268.55 258.38,371.04 163.03,872.21 -221.9,1168.16z"/>
   <path class="fil4" d="M7991.87 11709.46c0,-108.76 -677.27,-196.94 -1512.73,-196.94 -835.46,0 -1512.73,88.18 -1512.73,196.94 0,108.77 677.27,196.94 1512.73,196.94 835.46,0 1512.73,-88.17 1512.73,-196.94z"/>
   <path class="fil2" d="M12994.61 5900.65c-107.18,0 -194.1,86.92 -194.1,194.09 0,107.17 86.92,194.09 194.09,194.09 107.18,0 194.1,-86.92 194.1,-194.09 -0.29,-107.06 -87.04,-193.81 -194.09,-194.1l0 0.01zm-567.5 -1523.04l0 194.1 194.1 0 349.39 707.74 -146.08 237.76c-15.89,28.05 -24.28,59.79 -24.28,92.05 0,0.05 0,0.14 0,0.19 0,129.93 88.84,194.09 209.28,194.09l1134.86 0 0 -186.64 -1111.12 0c-0.46,0.03 -0.93,0.05 -1.4,0.05 -12.65,0 -22.92,-10.27 -22.92,-22.92 0,-0.47 0.02,-0.94 0.04,-1.4 2.55,-8.38 6.03,-16.52 10.3,-24.15l96.98 -153.13 723.08 0c0.52,0.01 1.05,0.01 1.56,0.01 70.66,0 135.52,-39.27 168.26,-101.86l349.52 -601.01c6.44,-14.44 9.79,-30.13 9.79,-45.95 0,-0.85 -0.01,-1.76 -0.02,-2.6 -0.55,-51.14 -42.18,-92.31 -93.32,-92.31 -1.26,0 -2.55,0.04 -3.8,0.08l-1436.5 0 -92.23 -194.1 -315.49 0z"/>
   <polygon class="fil10" points="13701.8,4914.59 13539.04,4914.59 13539.04,4751.83 13416.97,4751.83 13416.97,4914.59 13254.21,4914.59 13254.21,5036.66 13416.97,5036.66 13416.97,5199.42 13539.04,5199.42 13539.04,5036.66 13701.8,5036.66 "/>
   <path class="fil2" d="M13997.12 5900.65c-107.18,0 -194.1,86.92 -194.1,194.09 0,107.17 86.92,194.09 194.09,194.09 107.18,0 194.1,-86.92 194.1,-194.09 -0.29,-107.06 -87.04,-193.81 -194.09,-194.1l0 0.01z"/>
  </g>
 </g>
</svg>
