<?xml version="1.0" encoding="UTF-8"?>
<!DOCTYPE svg PUBLIC "-//W3C//DTD SVG 1.1//EN" "http://www.w3.org/Graphics/SVG/1.1/DTD/svg11.dtd">
<!-- Creator: CorelDRAW 2019 (64-Bit) -->
<svg xmlns="http://www.w3.org/2000/svg" xml:space="preserve" width="130.047mm" height="127mm" version="1.1" style="shape-rendering:geometricPrecision; text-rendering:geometricPrecision; image-rendering:optimizeQuality; fill-rule:evenodd; clip-rule:evenodd"
viewBox="0 0 13004.7 12700"
 xmlns:xlink="http://www.w3.org/1999/xlink">
 <defs>
  <style type="text/css">
   <![CDATA[
    .fil9 {fill:#2F2E41}
    .fil3 {fill:#3F3D56}
    .fil0 {fill:#3F8991}
    .fil6 {fill:#63CEFF}
    .fil8 {fill:#9F616A}
    .fil7 {fill:#CACACA}
    .fil5 {fill:#E4E4E4}
    .fil1 {fill:#F0F0F0}
    .fil4 {fill:#FFB6B6}
    .fil2 {fill:white}
   ]]>
  </style>
 </defs>
 <g id="Layer_x0020_1">
  <metadata id="CorelCorpID_0Corel-Layer"/>
  <circle class="fil0" cx="6641.37" cy="6295.33" r="5955.62"/>
  <g id="_2383156251088">
   <path class="fil1" d="M7699.97 2568.66c441.77,-326.34 1063.72,-451.45 1550.38,-196.86 -547.39,237.69 -994.11,662.17 -1259.19,1196.94 -101.58,206.74 -193.04,447.25 -402.64,542.8 -130.41,59.45 -284.33,47.97 -419.37,-0.03 -135.05,-48.02 -255.18,-129.57 -373.63,-210.26l-35.53 -4.28c210.72,-507.14 498.21,-1001.98 939.98,-1328.31z"/>
   <path class="fil2" d="M9246.43 2382.64c-454.06,13.99 -893.19,171.63 -1252.84,448.9 -78.43,58.16 -147.57,128.77 -204.08,208.48 -52.58,79.5 -83.1,171.79 -88.06,267 -6.44,88.74 -2.75,180.25 -30.65,265.88 -30.16,88.26 -96.65,159.42 -182.54,195.57 -104.71,47.32 -220.19,54.2 -333.34,57.01 -125.64,3.11 -256.19,4.35 -370.45,63.51 -13.85,7.17 -24.16,-14.73 -10.34,-21.89 198.8,-102.93 431.11,-35.77 640.05,-97.03 97.49,-28.58 186.97,-86.72 226.11,-184 34.23,-85.06 30.51,-179.43 36.25,-269.33 3.5,-93 29.74,-183.83 76.36,-264.27 52.38,-82.45 118.6,-155.4 195.35,-215.64 170.63,-138.41 362.77,-249.34 567.72,-328.25 233.62,-91.48 481.94,-142.28 732.68,-150.08 15.53,-0.47 13.3,23.64 -2.13,24.12l-0.09 0.02z"/>
   <path class="fil2" d="M8104.32 2735.28c-28.26,-49.15 -43.19,-105.01 -43.19,-161.74 0,-97.5 43.86,-189.89 119.41,-251.5 12.1,-9.8 27.9,8.55 15.78,18.37 -70.16,57.02 -110.99,142.75 -110.99,233.22 0,53.15 14.12,105.43 40.87,151.33 7.83,13.46 -14.11,23.72 -21.89,10.33l0.01 -0.01z"/>
   <path class="fil2" d="M7698.81 3261.64c54.74,15.29 111.48,23.08 168.36,23.08 99.12,0 196.93,-23.67 285.13,-68.79 13.87,-7.12 24.18,14.77 10.33,21.89 -91.37,46.62 -192.79,71 -295.49,71 -59.65,0 -119.14,-8.26 -176.48,-24.38 -15.02,-4.25 -6.77,-27.01 8.17,-22.79l-0.02 -0.01z"/>
   <path class="fil2" d="M8748.75 2449.24c19.2,58.71 66.72,103.87 126.33,120.09 15.06,4.05 6.79,26.81 -8.17,22.78 -65.74,-18.22 -118.24,-67.9 -140.06,-132.54 -0.68,-1.56 -1.03,-3.26 -1.03,-4.97 0,-4.69 2.63,-9 6.81,-11.13 1.61,-0.75 3.37,-1.14 5.14,-1.14 4.68,0 8.95,2.69 10.98,6.91l0 0z"/>
   <path class="fil1" d="M9636.2 4190.92c-9.48,-2.26 -18.95,-4.52 -28.59,-6.65 -127.17,-29.57 -257.71,-49.35 -388.24,-57.92 -10.1,-0.84 -20.34,-1.53 -30.44,-2.08 -47.29,-2.38 -95.24,-3.94 -142.87,-3.94 -267.45,0 -533.96,42.35 -788.01,124.85 -119.39,38.6 -236.09,87.28 -347.96,143.52 -154.88,78.14 -316.59,175.19 -483.33,196.96 -17.38,2.38 -34.96,3.83 -52.44,4.08l-616.88 -649.07c-0.66,-2.18 -1.47,-4.23 -2.15,-6.41l-25.81 -24.79c5.58,-3.32 11.44,-6.65 17.02,-9.97 3.23,-1.94 6.59,-3.74 9.82,-5.67 2.19,-1.25 4.4,-2.49 6.31,-3.74 0.73,-0.42 1.47,-0.83 2.05,-1.1 1.9,-1.26 3.81,-2.21 5.58,-3.33 32.71,-18.68 65.59,-37.17 98.67,-55.45 0.15,-0.14 0.15,-0.14 0.44,-0.14 252.38,-138.66 518.54,-257.48 794.28,-332.11 8.3,-2.24 16.74,-4.63 25.32,-6.57 124.37,-32.83 251.9,-55.91 379.71,-68.03 63.44,-5.73 128.23,-8.79 192.25,-8.79 6.12,0 12.75,0 18.87,0 182.03,1.88 363.16,33.06 535.6,90.97 344.16,115.98 647.4,340.74 808.76,660.9 4.07,8.1 8.07,16.15 12.04,24.48z"/>
   <path class="fil2" d="M9626.57 4197.29c-364.76,-257.39 -800.99,-396.02 -1247.51,-396.02 -7.66,0 -15.31,0 -22.97,0 -2.23,0.1 -4.5,0.1 -6.66,0.1 -95.63,0 -190.81,14.78 -281.89,43.66 -89.9,31.76 -169.78,87.2 -231.09,160.18 -58.57,66.98 -110.71,142.26 -184.54,193.84 -54.07,36.6 -118,56.2 -183.33,56.2 -27,0 -54.03,-3.4 -80.19,-9.98 -112.11,-25.26 -208.45,-89.29 -300.48,-155.18 -102.19,-73.17 -207.18,-150.77 -334.03,-172.33 -15.36,-2.61 -10.42,-26.3 4.93,-23.69 220.7,37.5 365.75,230.99 569.46,307.87 95.05,35.88 201.49,43.33 291.32,-10.77 78.54,-47.31 132.38,-124.9 191.1,-193.23 58.73,-72.06 134.45,-128.85 220.12,-165.04 91.38,-34.13 188.31,-52.84 285.87,-54.62 24.05,-0.73 48.9,-1.23 73.24,-1.23 195.21,0 390.17,27.66 577.69,81.2 241.53,67.57 470.22,176.42 675.28,321 12.69,8.96 -3.61,26.88 -16.22,17.97l-0.1 0.07z"/>
   <path class="fil2" d="M8502.35 3791.22c19.67,-157.73 150.85,-278.01 309.67,-284.04 15.57,-0.54 17.14,23.62 1.55,24.16 -147.95,5.31 -270.07,117.82 -287.53,264.82 -1.86,15.46 -25.54,10.44 -23.7,-4.93l0.01 -0.01z"/>
   <path class="fil2" d="M7861.67 3967.35c95.43,124.98 234.64,209.52 389.57,236.55 15.36,2.67 10.42,26.36 -4.92,23.7 -161.15,-28.38 -305.86,-116.7 -404.91,-246.96 -9.43,-12.43 10.86,-25.64 20.25,-13.27l0.01 -0.02z"/>
   <path class="fil2" d="M9189.11 3950.83c-6.57,19.12 -9.91,39.24 -9.91,59.47 0,40.7 13.54,80.3 38.46,112.46 9.59,12.31 -10.72,25.5 -20.24,13.28 -27.56,-35.91 -42.51,-79.99 -42.51,-125.27 0,-22.04 3.54,-43.97 10.48,-64.88 1.36,-5.6 6.39,-9.56 12.17,-9.56 0.71,0 1.44,0.06 2.15,0.18 5.61,1.2 9.63,6.16 9.63,11.9 0,0.81 -0.09,1.62 -0.24,2.42l0.01 0z"/>
   <path class="fil3" d="M7583.4 3054.15l-47.8 0 0 -1309.58c0,0 0,0 0,0 0,-418.53 -339.41,-757.95 -757.94,-757.95l-2774.53 0c0,0 0,0 0,0 -418.54,0 -757.95,339.42 -757.95,757.95l0 7184.46c0,-0.01 0,-0.01 0,-0.01 0,418.53 339.41,757.95 757.95,757.95l2774.52 0.02c0,-0.02 0,-0.02 0,-0.02 418.53,0 757.94,-339.42 757.94,-757.95l0.01 -4942.69 47.8 0 0 -932.18z"/>
   <path class="fil2" d="M6808.23 1183.81l-362.16 0c13.12,32.19 19.91,66.76 19.91,101.56 0,148.5 -120.39,268.92 -268.89,268.92l-1589.49 0c-148.51,0.01 -268.91,-120.41 -268.91,-268.91 0,-34.8 6.8,-69.37 19.93,-101.58l-338.27 0.01c0,0 0,0 0,0 -312.56,0 -566.03,253.48 -566.03,566.03l0 7173.92c0,-0.01 0,-0.01 0,-0.01 0,312.56 253.47,566.03 566.03,566.03l2787.88 0.01c0,-0.01 0,-0.01 0,-0.01 312.56,0 566.03,-253.47 566.03,-566.03l0 0.01 0 -7173.92c0,-312.55 -253.47,-566.03 -566.03,-566.03 0,0 0,0 0,0z"/>
   <path class="fil1" d="M5467.86 7185.25c-0.31,0 -1.07,0 -1.45,0 -862.22,0 -1561.45,-699.23 -1561.45,-1561.44 0,-0.38 0,-1.14 0,-1.52 0,-0.37 0,-1.14 0,-1.52 0,-587.21 329.82,-1124.9 853.21,-1391.07 219.64,-111.55 463.42,-170.25 710.06,-170.25 171.12,0 341.67,28.3 503.61,83.17 632.89,215.66 1058.83,810.68 1058.83,1479.54 0,863.12 -699.58,1562.89 -1562.72,1563.09l-0.09 0zm503.91 -6107.14c-1.48,-0.01 -2.93,-0.01 -4.38,-0.01 -235.51,0 -468.12,56.21 -677.52,163.54 -502.99,256.4 -819.97,773.39 -819.97,1338.04 0,829.19 672.45,1501.64 1501.65,1501.64 315.87,0 623.86,-99.73 879.79,-284.71 80.82,-58.37 156.23,-125.23 223.82,-198.64 256.09,-276.95 398.67,-641.27 398.67,-1018.78 0,-828.88 -672.18,-1501.08 -1501.06,-1501.08 -0.19,0 -0.74,0 -0.92,0l-0.08 0z"/>
   <path class="fil4" d="M2081.29 4235.34c147.9,18.52 258.96,144.35 258.96,293.43 0,29.75 -4.51,59.4 -13.32,87.77l519.27 432.54 -185.9 379.67 -724.73 -621.13c-114.76,-44.2 -190.52,-154.51 -190.52,-277.5 0,-164.2 133.15,-297.35 297.34,-297.35 13,0 26.07,0.88 38.92,2.54l-0.02 0.03z"/>
   <path class="fil5" d="M6931.06 6039.13c-10.42,-111.95 -53.47,-313.19 -90,-387.61 -112.31,-293.94 -837.94,-535.53 -935.39,-566.67l-24.71 -274.78 -1008.23 -108.48 -127.9 351.39 -361.6 135.66c-49.66,18.49 -88.54,58.34 -105.82,108.47l-0.01 0 -324.43 93.77 -320.14 92.55 -1112.21 -783.69 -52.51 34.32 -350.99 229.02 -54.14 35.34 1439.29 1298.53 534.65 -125.43 402.07 -94.59 34.31 139.33 -88.86 489.51c287.08,287.25 677.18,448.83 1083.36,448.83 322.21,0 636.57,-101.73 897.64,-290.43l228.4 -202.66c159.15,-172.2 276.63,-378.61 343.31,-603.32l-6.09 -19.06z"/>
   <circle class="fil4" transform="matrix(0.733026 -0.242697 0.242697 0.733026 5465.46 3787.71)" r="940.13"/>
   <path class="fil6" d="M5835.6 7921.61l-858.06 0c-62.05,-0.02 -112.37,-50.33 -112.37,-112.38 0,-62.05 50.32,-112.37 112.37,-112.37l858.06 0.01c62.05,-0.01 112.36,50.31 112.36,112.36 0,62.05 -50.31,112.36 -112.36,112.36l0 0.02z"/>
   <path class="fil6" d="M3019.97 1908.53l-2360.17 0c-45.28,-0.07 -81.95,-36.81 -81.95,-82.09 0,-45.28 36.67,-82.02 81.95,-82.09l2360.17 0c45.32,0 82.09,36.77 82.09,82.09 0,45.33 -36.77,82.09 -82.09,82.09z"/>
   <path class="fil6" d="M4382.65 2432.83l-3722.85 0c-45.32,0 -82.08,-36.76 -82.08,-82.09 0,-45.32 36.76,-82.08 82.08,-82.08l3722.85 0c45.33,0 82.08,36.76 82.08,82.08 0,45.33 -36.75,82.09 -82.08,82.09z"/>
   <path class="fil7" d="M3667.24 2926.77l-3007.44 0c-45.32,0 -82.08,-36.76 -82.08,-82.08 0,-45.33 36.76,-82.08 82.08,-82.08l3007.44 -0.01c45.32,0.01 82.08,36.76 82.08,82.09 0,45.32 -36.76,82.08 -82.08,82.08z"/>
   <path class="fil7" d="M2355.67 3418.89l-1695.87 0c-45.32,0 -82.08,-36.76 -82.08,-82.08 0,-45.33 36.76,-82.08 82.08,-82.08l1695.87 0c45.33,0 82.08,36.75 82.08,82.08 0,45.32 -36.75,82.08 -82.08,82.08l0 0z"/>
   <path class="fil7" d="M3292.51 3910.98l-2632.71 0c-45.28,-0.07 -81.96,-36.8 -81.96,-82.08 0,-45.28 36.68,-82.02 81.96,-82.09l2632.71 0.01c45.28,0.06 81.96,36.8 81.96,82.08 0,45.28 -36.68,82.01 -81.96,82.08z"/>
   <polygon class="fil8" points="10712.23,11941.76 10500.7,11941.74 10400.06,11125.8 10712.28,11125.82 "/>
   <path class="fil9" d="M10795.46 12234.51l-807.62 -0.03 0 -10.22c0,-173.62 140.77,-314.35 314.36,-314.35l0.01 0 147.52 -111.91 275.25 111.93 70.5 0 -0.02 324.58z"/>
   <path class="fil8" d="M10588.98 8107.03l-93.3 -1137.53 -73.3 -426.95 410.36 -90.63 136.17 584.53 -118.64 1102.15c27.64,33.83 42.74,76.25 42.74,119.98 0,104.8 -84.99,189.79 -189.79,189.79 -104.81,0 -189.8,-84.99 -189.8,-189.79 0,-59.58 27.99,-115.72 75.56,-151.57l0 0.02z"/>
   <polygon class="fil8" points="9588.58,11941.76 9377.04,11941.74 9276.41,11125.8 9588.62,11125.82 "/>
   <path class="fil9" d="M9250.05 8364.9l-93.78 162.22c0,0 -103.05,28.14 -69.37,364.03 33.69,335.89 35.13,2325.95 198.14,2570.84l29.49 210.28 307.81 29.41 7.76 -186.59 367.03 -2592.25c0,0 216.17,2544.77 394.99,2607.03l64.59 212.02 282.09 0.12 -16.66 -249.85 18.19 -3153.56 -1490.28 26.3z"/>
   <path class="fil5" d="M9146.94 8514.76l-6.49 -1.67c193.56,-723.97 137.73,-1661.44 1.06,-2668.1l0 -4.17 494.07 -452.53 429.04 -0.01 425.31 274.47c274.96,137.47 337.44,428.6 338.05,431.54l0.42 2.07 -168.47 588.06 126.92 1700.66 0.15 1.97 -0.73 1.84c-41.07,104.14 -151.14,89.31 -278.59,72.13 -127.22,-17.16 -596.06,139.71 -739.82,139.71 -280.95,0.01 -600.84,-80.83 -620.92,-85.97z"/>
   <polygon class="fil5" points="10400.86,5891.96 10585.17,5811.78 10828,6109.5 11024.82,7063.54 10350.63,6961.39 "/>
   <path class="fil8" d="M7566 7651.21l842.56 -769.92 292.82 -319.25 322.8 269.09 -378.97 465.41 -944.27 580.64c-19.94,86.01 -96.6,146.92 -184.9,146.92 -104.8,0 -189.8,-84.99 -189.8,-189.79 0,-104.81 85,-189.8 189.8,-189.8 16.87,0 33.69,2.27 49.96,6.69l0 0.01z"/>
   <path class="fil5" d="M8390.21 6889.68l233.36 -303.04c1.93,-4.35 195.54,-437 363.36,-624.99 172.16,-192.84 307.68,-94.22 309.04,-93.16l3.37 2.54 9.37 712.12 -646.16 772.09 -272.34 -465.56z"/>
   <circle class="fil8" transform="matrix(0.123686 -0.762188 0.762188 0.123686 9807.55 4899.03)" r="509.34"/>
   <path class="fil9" d="M9447.99 4840.64c0,0 -3.15,-138.26 -20.63,-199.44 -17.48,-61.18 -52.44,-113.62 -34.96,-113.62 17.48,0 26.22,-43.69 26.22,-43.69 0,0 17.49,-8.74 26.23,0 8.74,8.74 17.48,-61.18 17.48,-61.18 0,0 8.74,-26.22 17.48,-8.74 8.74,17.48 8.74,8.74 17.48,-17.48 8.74,-26.23 52.45,-43.7 52.45,-43.7 0,0 166.06,8.74 192.27,-26.22 26.22,-34.97 323.37,-8.74 384.55,34.95 61.18,43.7 332.12,201.02 288.42,332.12 -43.7,131.09 -169.5,432.95 -201.02,463.21 -49.85,47.85 -84.36,65.1 -320.22,112.04 -46.16,9.19 -281.78,-141.5 -281.78,-167.72 0,-26.21 28.41,-109.36 -17.25,-120.78 -69.02,-17.25 -76.79,70.01 -94.27,43.78 -17.48,-26.22 -52.45,-183.53 -52.45,-183.53z"/>
   <path class="fil9" d="M9671.81 12234.51l-807.62 -0.03 0 -10.22c-0.01,-173.62 140.77,-314.35 314.35,-314.35l0.02 0 147.52 -111.91 275.24 111.93 70.5 0 -0.01 324.58z"/>
  </g>
 </g>
</svg>
